<?xml version="1.0" encoding="UTF-8" standalone="no"?>
<!-- Created with Inkscape (http://www.inkscape.org/) -->

<svg
   width="210mm"
   height="210mm"
   viewBox="0 0 210 210"
   version="1.1"
   id="svg1"
   xml:space="preserve"
   inkscape:version="1.4.3 (0d15f75042, 2025-12-25)"
   sodipodi:docname="bct-new-logo.svg"
   inkscape:export-filename="bct-new-logo.png"
   inkscape:export-xdpi="300"
   inkscape:export-ydpi="300"
   xmlns:inkscape="http://www.inkscape.org/namespaces/inkscape"
   xmlns:sodipodi="http://sodipodi.sourceforge.net/DTD/sodipodi-0.dtd"
   xmlns="http://www.w3.org/2000/svg"
   xmlns:svg="http://www.w3.org/2000/svg"
   xmlns:rdf="http://www.w3.org/1999/02/22-rdf-syntax-ns#"
   xmlns:cc="http://creativecommons.org/ns#"
   xmlns:dc="http://purl.org/dc/elements/1.1/"><title
     id="title23">Logo for BCT</title><sodipodi:namedview
     id="namedview1"
     pagecolor="#292929"
     bordercolor="#000000"
     borderopacity="0.25"
     inkscape:showpageshadow="2"
     inkscape:pageopacity="0.0"
     inkscape:pagecheckerboard="false"
     inkscape:deskcolor="#d1d1d1"
     inkscape:document-units="mm"
     inkscape:zoom="0.67740037"
     inkscape:cx="301.1513"
     inkscape:cy="357.24811"
     inkscape:window-width="1737"
     inkscape:window-height="1077"
     inkscape:window-x="0"
     inkscape:window-y="0"
     inkscape:window-maximized="0"
     inkscape:current-layer="layer1"
     showgrid="true"
     inkscape:export-bgcolor="#292929ff" /><defs
     id="defs1"><rect
       x="89.378041"
       y="647.9908"
       width="551.69886"
       height="95.831637"
       id="rect22" /><rect
       x="70.471147"
       y="627.36509"
       width="419.38927"
       height="85.940419"
       id="rect21" /><marker
       inkscape:stockid="Arrow2Mend"
       orient="auto"
       refY="0.0"
       refX="0.0"
       id="Arrow2Mend"
       style="overflow:visible;"><path
         sodipodi:nodetypes="cccc"
         id="path2928"
         style="font-size:12.0;fill-rule:evenodd;stroke-width:0.62500000;stroke-linejoin:round;"
         d="M 8.7185878,4.0337352 L -2.2072895,0.016013256 L 8.7185884,-4.0017078 C 6.9730900,-1.6296469 6.9831476,1.6157441 8.7185878,4.0337352 z "
         transform="scale(0.6) rotate(180) translate(-5,0)" /></marker><marker
       inkscape:stockid="Arrow2Lend"
       orient="auto"
       refY="0.0"
       refX="0.0"
       id="Arrow2Lend"
       style="overflow:visible;"><path
         sodipodi:nodetypes="cccc"
         id="path2931"
         style="font-size:12.0;fill-rule:evenodd;stroke-width:0.62500000;stroke-linejoin:round;"
         d="M 8.7185878,4.0337352 L -2.2072895,0.016013256 L 8.7185884,-4.0017078 C 6.9730900,-1.6296469 6.9831476,1.6157441 8.7185878,4.0337352 z "
         transform="scale(1.1) rotate(180) translate(-5,0)" /></marker><marker
       inkscape:stockid="Arrow2Lstart"
       orient="auto"
       refY="0.0"
       refX="0.0"
       id="Arrow2Lstart"
       style="overflow:visible"><path
         sodipodi:nodetypes="cccc"
         id="path2922"
         style="font-size:12.0;fill-rule:evenodd;stroke-width:0.62500000;stroke-linejoin:round"
         d="M 8.7185878,4.0337352 L -2.2072895,0.016013256 L 8.7185884,-4.0017078 C 6.9730900,-1.6296469 6.9831476,1.6157441 8.7185878,4.0337352 z "
         transform="scale(1.1) translate(-5,0)" /></marker></defs><rect
     style="opacity:1;fill:#292929;fill-opacity:1;fill-rule:evenodd;stroke:none;stroke-width:2.79571;stroke-linecap:butt;stroke-dasharray:none;stroke-opacity:1"
     id="rect20"
     width="207.2043"
     height="207.20428"
     x="1.39785"
     y="1.3978577"
     inkscape:label="background" /><text
     xml:space="preserve"
     transform="matrix(0.24574669,0,0,0.26458333,7.1015077,-14.383611)"
     id="text22"
     style="font-style:normal;font-variant:normal;font-weight:normal;font-stretch:normal;font-size:24px;font-family:'Adwaita Mono';-inkscape-font-specification:'Adwaita Mono';writing-mode:lr-tb;direction:ltr;white-space:pre;shape-inside:url(#rect22);display:inline;opacity:1;fill:#91cafa;fill-opacity:1;fill-rule:evenodd;stroke:none;stroke-width:3.77953;stroke-linecap:butt;stroke-dasharray:none;stroke-opacity:1"
     inkscape:label="Explanation"><tspan
       x="89.378906"
       y="669.51823"
       id="tspan8"><tspan
         style="font-weight:bold;font-family:'Bitstream Vera Sans Mono';-inkscape-font-specification:'Bitstream Vera Sans Mono Bold'"
         id="tspan7">B: Seven segment Display (0 and 1)
</tspan></tspan><tspan
       x="89.378906"
       y="699.81187"
       id="tspan10"><tspan
         style="font-weight:bold;font-family:'Bitstream Vera Sans Mono';-inkscape-font-specification:'Bitstream Vera Sans Mono Bold'"
         id="tspan9">C: Logo of the C programming language
</tspan></tspan><tspan
       x="89.378906"
       y="730.10551"
       id="tspan12"><tspan
         style="font-weight:bold;font-family:'Bitstream Vera Sans Mono';-inkscape-font-specification:'Bitstream Vera Sans Mono Bold'"
         id="tspan11">T: Symbol of a Transistor</tspan></tspan></text><g
     inkscape:label="BCT logo"
     inkscape:groupmode="layer"
     id="layer1"
     transform="translate(2.9949459e-6,-26.380665)"><g
       id="g2"
       inkscape:label="c-logo"
       transform="matrix(1.0880907,0,0,1.0880907,-16.457172,128.85733)"><path
         fill="#ffffff"
         fill-rule="evenodd"
         d="m 113.45377,-43.892033 c 12.67568,0 22.96616,10.290478 22.96616,22.966162 0,12.6756774 -10.29048,22.9661561 -22.96616,22.9661561 -12.67568,0 -22.96616,-10.2904787 -22.96616,-22.9661561 0,-12.675684 10.29048,-22.966162 22.96616,-22.966162 z m 0,11.483078 c 6.33702,0 11.48308,5.144424 11.48308,11.483084 0,6.337017 -5.14606,11.4830781 -11.48308,11.4830781 -6.33702,0 -11.48308,-5.1460611 -11.48308,-11.4830781 0,-6.33866 5.14442,-11.483084 11.48308,-11.483084 z"
         clip-rule="evenodd"
         id="path6-3"
         style="fill:#91cafa;fill-opacity:1;stroke-width:1.64044"
         inkscape:label="oval" /><path
         fill="#3949ab"
         fill-rule="evenodd"
         d="m 143.77731,-38.63442 c 0.84646,0.792328 0.83006,1.98657 0.83006,2.92654 0,6.225472 -0.0527,23.932378 0.0149,30.1578497 0.007,0.6496142 -0.20832,1.3336762 -0.52986,1.8487795 L 112.78612,-20.925871 Z"
         clip-rule="evenodd"
         id="path8"
         style="fill:#292929;fill-opacity:1;stroke-width:1.64044"
         inkscape:label="triangle" /></g><g
       id="g19"
       inkscape:label="wire-pcb"><path
         sodipodi:nodetypes="ccc"
         id="path2056-2"
         d="M 82.879067,50.970973 120.85304,80.87066 v 29.89969"
         style="fill:none;fill-opacity:0.75;fill-rule:evenodd;stroke:#88aa00;stroke-width:2.60979;stroke-linecap:round;stroke-linejoin:round;stroke-miterlimit:4;stroke-dasharray:none;stroke-opacity:1;marker-mid:none"
         transform="matrix(0,-0.45980683,0.45980683,0,131.65245,122.84839)"
         inkscape:label="e" /><path
         fill="#3949ab"
         fill-rule="evenodd"
         d="m 163.27649,81.347113 c -0.18433,0.02873 -0.33407,-0.09172 -0.45324,-0.184871 -0.78905,-0.617137 -3.02789,-2.379422 -3.82376,-2.987854 -0.0833,-0.06314 -0.14839,-0.158605 -0.18178,-0.250457 l 5.28654,-2.260667 z"
         clip-rule="evenodd"
         id="path8-6"
         style="fill:#88aa00;fill-opacity:1;stroke-width:0.263962;stroke-dasharray:none"
         transform="matrix(1.0354067,0,0,0.99888193,-4.3661306,-4.3084051)"
         inkscape:label="arrow" /><path
         sodipodi:nodetypes="ccc"
         id="path2056"
         d="M 78.511276,48.382595 120.41254,17.349853 v -31.032745"
         style="fill:none;fill-opacity:0.75;fill-rule:evenodd;stroke:#88aa00;stroke-width:2.60979;stroke-linecap:round;stroke-linejoin:round;stroke-miterlimit:4;stroke-dasharray:none;stroke-opacity:1;marker-mid:none"
         transform="matrix(0,-0.45980683,0.45980683,0,131.65245,122.84838)"
         inkscape:label="c" /><path
         sodipodi:nodetypes="cc"
         id="path9839-9"
         d="M 120.41254,-12.340929 V -226.12504"
         style="fill:none;fill-opacity:0.75;fill-rule:evenodd;stroke:#88aa00;stroke-width:2.60979;stroke-linecap:round;stroke-linejoin:round;stroke-miterlimit:4;stroke-dasharray:none;stroke-opacity:1"
         transform="matrix(0,-0.45980683,0.45980683,0,131.65245,122.84839)"
         inkscape:label="wire-up" /><path
         sodipodi:nodetypes="cc"
         id="path9839-9-2"
         d="M -43.819894,110.78328 V -226.71217"
         style="fill:none;fill-opacity:0.75;fill-rule:evenodd;stroke:#88aa00;stroke-width:2.60979;stroke-linecap:round;stroke-linejoin:round;stroke-miterlimit:4;stroke-dasharray:none;stroke-opacity:1"
         transform="matrix(0,-0.45980683,0.45980683,0,131.65245,122.84838)"
         inkscape:label="wire-down" /><path
         sodipodi:nodetypes="cc"
         id="path9839-9-9"
         d="M -43.819894,-226.71217 H 120.41254"
         style="fill:none;fill-opacity:0.75;fill-rule:evenodd;stroke:#88aa00;stroke-width:2.60979;stroke-linecap:round;stroke-linejoin:round;stroke-miterlimit:4;stroke-dasharray:none;stroke-opacity:1"
         transform="matrix(0,-0.45980683,0.45980683,0,131.65245,122.84838)"
         inkscape:label="wire-left" /><path
         sodipodi:nodetypes="cc"
         id="path9839-9-9-95"
         d="M -43.819892,110.78328 H 120.41255"
         style="fill:none;fill-opacity:0.75;fill-rule:evenodd;stroke:#88aa00;stroke-width:2.60979;stroke-linecap:round;stroke-linejoin:round;stroke-miterlimit:4;stroke-dasharray:none;stroke-opacity:1"
         transform="matrix(0,-0.45980683,0.45980683,0,131.65245,122.84839)"
         inkscape:label="wire-right" /><path
         sodipodi:nodetypes="cc"
         id="path9839-9-9-9"
         d="m -43.819892,-161.94116 h 26.083255"
         style="fill:none;fill-opacity:0.75;fill-rule:evenodd;stroke:#88aa00;stroke-width:2.17483;stroke-linecap:round;stroke-linejoin:round;stroke-miterlimit:4;stroke-dasharray:none;stroke-opacity:1"
         transform="matrix(0,-0.45980683,0.45980683,0,131.65245,122.84839)"
         inkscape:label="wire-8-segment" /><path
         sodipodi:nodetypes="cc"
         id="path2052"
         d="M 81.852903,10.233821 V 87.278244"
         style="fill:none;fill-opacity:0.75;fill-rule:evenodd;stroke:#88aa00;stroke-width:15.2238;stroke-linecap:butt;stroke-linejoin:miter;stroke-miterlimit:4;stroke-dasharray:none;stroke-opacity:1"
         transform="matrix(0,-0.45980683,0.45980683,0,131.65245,122.84839)"
         inkscape:label="bridge" /><path
         sodipodi:nodetypes="cc"
         id="path2054"
         d="M 154.07081,129.97941 V 85.211865"
         style="fill:#ffffff;fill-opacity:0.75;fill-rule:evenodd;stroke:#88aa00;stroke-width:6.91209;stroke-linecap:butt;stroke-linejoin:round;stroke-miterlimit:4;stroke-dasharray:none;stroke-opacity:1"
         inkscape:label="b" /><ellipse
         id="path1291"
         style="fill:none;fill-opacity:0.4375;stroke:#88aa00;stroke-width:1;stroke-linecap:square;stroke-linejoin:miter;stroke-miterlimit:4;stroke-dasharray:none;stroke-dashoffset:0;stroke-opacity:1"
         cx="-77.072983"
         cy="153.86696"
         rx="24.190546"
         ry="24.204508"
         transform="rotate(-90)"
         inkscape:label="transistor-circle" /></g><g
       id="g17"
       inkscape:label="8-segment"
       style="stroke-width:8.18268;stroke-dasharray:none"
       transform="matrix(0,-0.45980683,0.45980683,0,131.65245,122.84839)"><polygon
         id="a"
         points="9,1 8,2 2,2 1,1 2,0 8,0 "
         fill="#dddddd"
         style="fill:#ffffff;fill-opacity:1;fill-rule:evenodd;stroke:#292929;stroke-width:0.25;stroke-linecap:butt;stroke-linejoin:miter;stroke-dasharray:none;stroke-opacity:1"
         transform="matrix(0,-7.2013701,-6.0265427,0,90.741132,-125.93431)" /><polygon
         id="b"
         points="9,9 8,8 8,2 9,1 10,2 10,8 "
         fill="#ff0000"
         style="fill-rule:evenodd;stroke:#292929;stroke-width:0.25;stroke-linecap:butt;stroke-linejoin:miter;stroke-dasharray:none;stroke-opacity:1"
         transform="matrix(0,-7.2013701,-6.0265427,0,90.741132,-125.93431)" /><polygon
         id="c"
         points="9,17 8,16 8,10 9,9 10,10 10,16 "
         fill="#ff0000"
         style="fill-rule:evenodd;stroke:#292929;stroke-width:0.25;stroke-linecap:butt;stroke-linejoin:miter;stroke-dasharray:none;stroke-opacity:1"
         transform="matrix(0,-7.2013701,-6.0265427,0,90.741132,-125.93431)" /><polygon
         id="d"
         points="1,17 2,16 8,16 9,17 8,18 2,18 "
         fill="#dddddd"
         style="fill:#ffffff;fill-opacity:1;fill-rule:evenodd;stroke:#292929;stroke-width:0.25;stroke-linecap:butt;stroke-linejoin:miter;stroke-dasharray:none;stroke-opacity:1"
         transform="matrix(0,-7.2013701,-6.0265427,0,90.741132,-125.93431)" /><polygon
         id="e"
         points="1,9 2,10 2,16 1,17 0,16 0,10 "
         fill="#dddddd"
         style="fill:#ffffff;fill-opacity:1;fill-rule:evenodd;stroke:#292929;stroke-width:0.25;stroke-linecap:butt;stroke-linejoin:miter;stroke-dasharray:none;stroke-opacity:1"
         transform="matrix(0,-7.2013701,-6.0265427,0,90.741132,-125.93431)" /><polygon
         id="f"
         points="1,1 2,2 2,8 1,9 0,8 0,2 "
         fill="#dddddd"
         style="fill:#ffffff;fill-opacity:1;fill-rule:evenodd;stroke:#292929;stroke-width:0.25;stroke-linecap:butt;stroke-linejoin:miter;stroke-dasharray:none;stroke-opacity:1"
         transform="matrix(0,-7.2013701,-6.0265427,0,90.741132,-125.93431)" /><polygon
         id="g"
         points="9,9 8,10 2,10 1,9 2,8 8,8 "
         fill="#dddddd"
         style="fill:#7f7f7f;fill-opacity:1;fill-rule:evenodd;stroke:#292929;stroke-width:0.25;stroke-linecap:butt;stroke-linejoin:miter;stroke-dasharray:none;stroke-opacity:1"
         transform="matrix(0,-7.2013701,-6.0265427,0,90.741132,-125.93431)" /></g></g><metadata
     id="metadata23"><rdf:RDF><cc:Work
         rdf:about=""><dc:title>Logo for BCT</dc:title><dc:creator><cc:Agent><dc:title>scientiac</dc:title></cc:Agent></dc:creator></cc:Work></rdf:RDF></metadata></svg>
